<svg width="24" height="25" viewBox="0 0 24 25" fill="none" xmlns="http://www.w3.org/2000/svg">
<g id="icon-park-outline:outgoing">
<g id="Group">
<path id="Vector" d="M9 17.8338C9 17.3034 8.78929 16.7947 8.41421 16.4196C8.03914 16.0445 7.53043 15.8338 7 15.8338C6.46957 15.8338 5.96086 16.0445 5.58579 16.4196C5.21071 16.7947 5 17.3034 5 17.8338C5 18.3643 5.21071 18.873 5.58579 19.248C5.96086 19.6231 6.46957 19.8338 7 19.8338C7.53043 19.8338 8.03914 19.6231 8.41421 19.248C8.78929 18.873 9 18.3643 9 17.8338ZM18.5 17.8338C18.5 17.3034 18.2893 16.7947 17.9142 16.4196C17.5391 16.0445 17.0304 15.8338 16.5 15.8338C15.9696 15.8338 15.4609 16.0445 15.0858 16.4196C14.7107 16.7947 14.5 17.3034 14.5 17.8338C14.5 18.3643 14.7107 18.873 15.0858 19.248C15.4609 19.6231 15.9696 19.8338 16.5 19.8338C17.0304 19.8338 17.5391 19.6231 17.9142 19.248C18.2893 18.873 18.5 18.3643 18.5 17.8338Z" stroke="#0079E2" stroke-width="2" stroke-linejoin="round"/>
<path id="Vector_2" d="M2 17.8338H5M9 17.8338H14.5M18.5 17.8338H22" stroke="#0079E2" stroke-width="2" stroke-linecap="round"/>
<path id="Vector_3" d="M19 9.83383L22 6.83383M22 6.83383L19 3.83383M22 6.83383H2" stroke="#0079E2" stroke-width="2" stroke-linecap="round" stroke-linejoin="round"/>
</g>
</g>
</svg>
